ffmpeg started on 2025-05-19 at 12:26:14
Report written to "D:\Convert\FFMetrics\reports\ssim_report-6.txt"
Log level: 32
Command line:
ffmpeg -hide_banner -nostdin -i "G:\\\xc0\xed\xe8\xec\xe5\\\xce\xed\xe3\xee\xe8\xed\xe3\xe8\\!_30_\xc2\xe5\xf1\xed\xe0_2023\\DreamCast\\\xd2\xe5\xed\xfc \xeb\xfe\xe1\xe2\xe8 \xe2 \xf2\xe0\xe9\xed\xee\xe9 \xea\xee\xec\xed\xe0\xf2\xe5\\[DC] Aiyou de Mishi - 10_Telegram_HEVC.mkv" -i "G:\\\xc0\xed\xe8\xec\xe5\\\xce\xed\xe3\xee\xe8\xed\xe3\xe8\\!_30_\xc2\xe5\xf1\xed\xe0_2023\\DreamCast\\\xd2\xe5\xed\xfc \xeb\xfe\xe1\xe2\xe8 \xe2 \xf2\xe0\xe9\xed\xee\xe9 \xea\xee\xec\xed\xe0\xf2\xe5\\[DC] Aiyou de Mishi - 10_Telegram.mp4" -lavfi "[0:v]settb=AVTB,setpts=PTS-STARTPTS,format=pix_fmts=yuv420p10,fps=24/1,scale=1920:1080:flags=bicubic[main];[1:v]settb=AVTB,setpts=PTS-STARTPTS,format=pix_fmts=yuv420p,fps=24/1,scale=1920:1080:flags=bicubic[ref];[main][ref]ssim=eof_action=endall:stats_file='D\\:/Convert/FFMetrics/logs/ssim_logfile-6.txt'" -f null -
Input #0, matroska,webm, from 'G:\Аниме\Онгоинги\!_30_Весна_2023\DreamCast\Тень любви в тайной комнате\[DC] Aiyou de Mishi - 10_Telegram_HEVC.mkv':
  Metadata:
    COMPATIBLE_BRANDS: isomiso2avc1mp41
    MAJOR_BRAND     : isom
    MINOR_VERSION   : 512
    ENCODER         : Lavf61.7.100
  Duration: 00:19:32.50, start: -0.021000, bitrate: 1046 kb/s
  Stream #0:0: Video: hevc (Main 10), yuv420p10le(tv, bt709, progressive), 1920x1080 [SAR 1:1 DAR 16:9], 24 fps, 24 tbr, 1k tbn (default)
      Metadata:
        HANDLER_NAME    : VideoHandler
        VENDOR_ID       : [0][0][0][0]
        ENCODER         : Lavc61.19.100 libx265
        BPS             : 847593
        DURATION        : 00:19:32.374666666
        NUMBER_OF_FRAMES: 28137
        NUMBER_OF_BYTES : 124212120
        _STATISTICS_WRITING_APP: mkvpropedit v66.0.0 ('Josie') 64-bit
        _STATISTICS_WRITING_DATE_UTC: 2025-05-19 08:15:49
        _STATISTICS_TAGS: BPS DURATION NUMBER_OF_FRAMES NUMBER_OF_BYTES
  Stream #0:1: Audio: aac (LC), 48000 Hz, stereo, fltp (default)
      Metadata:
        HANDLER_NAME    : SoundHandler
        VENDOR_ID       : [0][0][0][0]
        ENCODER         : Lavc61.19.100 aac
        BPS             : 195259
        DURATION        : 00:19:32.480000000
        NUMBER_OF_FRAMES: 54961
        NUMBER_OF_BYTES : 28617160
        _STATISTICS_WRITING_APP: mkvpropedit v66.0.0 ('Josie') 64-bit
        _STATISTICS_WRITING_DATE_UTC: 2025-05-19 08:15:49
        _STATISTICS_TAGS: BPS DURATION NUMBER_OF_FRAMES NUMBER_OF_BYTES
Input #1, mov,mp4,m4a,3gp,3g2,mj2, from 'G:\Аниме\Онгоинги\!_30_Весна_2023\DreamCast\Тень любви в тайной комнате\[DC] Aiyou de Mishi - 10_Telegram.mp4':
  Metadata:
    major_brand     : isom
    minor_version   : 512
    compatible_brands: isomiso2avc1mp41
    encoder         : Lavf60.4.101
  Duration: 00:19:32.47, start: 0.000000, bitrate: 2669 kb/s
  Stream #1:0[0x1](und): Video: h264 (Main) (avc1 / 0x31637661), yuv420p(tv, bt709, progressive), 1920x1080 [SAR 1:1 DAR 16:9], 2469 kb/s, 24 fps, 24 tbr, 12288 tbn (default)
      Metadata:
        handler_name    : VideoHandler
        vendor_id       : [0][0][0][0]
        encoder         : Lavc60.9.100 h264_qsv
  Stream #1:1[0x2](und): Audio: aac (LC) (mp4a / 0x6134706D), 48000 Hz, stereo, fltp, 195 kb/s (default)
      Metadata:
        handler_name    : SoundHandler
        vendor_id       : [0][0][0][0]
Stream mapping:
  Stream #0:0 (hevc) -> settb:default
  Stream #1:0 (h264) -> settb:default
  ssim:default -> Stream #0:0 (wrapped_avframe)
  Stream #0:1 -> #0:1 (aac (native) -> pcm_s16le (native))
Output #0, null, to 'pipe:':
  Metadata:
    COMPATIBLE_BRANDS: isomiso2avc1mp41
    MAJOR_BRAND     : isom
    MINOR_VERSION   : 512
    encoder         : Lavf61.7.100
  Stream #0:0: Video: wrapped_avframe, yuv420p10le(tv, bt709, progressive), 1920x1080 [SAR 1:1 DAR 16:9], q=2-31, 200 kb/s, 24 fps, 24 tbn
      Metadata:
        encoder         : Lavc61.19.100 wrapped_avframe
  Stream #0:1: Audio: pcm_s16le, 48000 Hz, stereo, s16, 1536 kb/s (default)
      Metadata:
        HANDLER_NAME    : SoundHandler
        VENDOR_ID       : [0][0][0][0]
        _STATISTICS_TAGS: BPS DURATION NUMBER_OF_FRAMES NUMBER_OF_BYTES
        BPS             : 195259
        DURATION        : 00:19:32.480000000
        NUMBER_OF_FRAMES: 54961
        NUMBER_OF_BYTES : 28617160
        _STATISTICS_WRITING_APP: mkvpropedit v66.0.0 ('Josie') 64-bit
        _STATISTICS_WRITING_DATE_UTC: 2025-05-19 08:15:49
        encoder         : Lavc61.19.100 pcm_s16le
frame=  182 fps=0.0 q=-0.0 size=N/A time=00:00:07.58 bitrate=N/A speed=14.5x    frame=  359 fps=349 q=-0.0 size=N/A time=00:00:14.95 bitrate=N/A speed=14.5x    frame=  612 fps=395 q=-0.0 size=N/A time=00:00:25.50 bitrate=N/A speed=16.4x    frame=  846 fps=408 q=-0.0 size=N/A time=00:00:35.25 bitrate=N/A speed=  17x    frame= 1093 fps=423 q=-0.0 size=N/A time=00:00:45.54 bitrate=N/A speed=17.6x    frame= 1344 fps=434 q=-0.0 size=N/A time=00:00:56.00 bitrate=N/A speed=18.1x    frame= 1592 fps=441 q=-0.0 size=N/A time=00:01:06.33 bitrate=N/A speed=18.4x    frame= 1810 fps=438 q=-0.0 size=N/A time=00:01:15.41 bitrate=N/A speed=18.2x    frame= 2070 fps=446 q=-0.0 size=N/A time=00:01:26.25 bitrate=N/A speed=18.6x    frame= 2310 fps=447 q=-0.0 size=N/A time=00:01:36.25 bitrate=N/A speed=18.6x    frame= 2542 fps=448 q=-0.0 size=N/A time=00:01:45.91 bitrate=N/A speed=18.7x    frame= 2752 fps=444 q=-0.0 size=N/A time=00:01:54.66 bitrate=N/A speed=18.5x    frame= 2917 fps=435 q=-0.0 size=N/A time=00:02:01.54 bitrate=N/A speed=18.1x    frame= 3099 fps=429 q=-0.0 size=N/A time=00:02:09.12 bitrate=N/A speed=17.9x    frame= 3279 fps=423 q=-0.0 size=N/A time=00:02:16.62 bitrate=N/A speed=17.6x    frame= 3465 fps=420 q=-0.0 size=N/A time=00:02:24.37 bitrate=N/A speed=17.5x    frame= 3608 fps=412 q=-0.0 size=N/A time=00:02:30.33 bitrate=N/A speed=17.2x    frame= 3833 fps=413 q=-0.0 size=N/A time=00:02:39.70 bitrate=N/A speed=17.2x    frame= 4054 fps=414 q=-0.0 size=N/A time=00:02:48.91 bitrate=N/A speed=17.2x    frame= 4250 fps=412 q=-0.0 size=N/A time=00:02:57.08 bitrate=N/A speed=17.2x    frame= 4400 fps=406 q=-0.0 size=N/A time=00:03:03.33 bitrate=N/A speed=16.9x    frame= 4663 fps=411 q=-0.0 size=N/A time=00:03:14.29 bitrate=N/A speed=17.1x    frame= 4923 fps=415 q=-0.0 size=N/A time=00:03:25.12 bitrate=N/A speed=17.3x    frame= 5177 fps=418 q=-0.0 size=N/A time=00:03:35.70 bitrate=N/A speed=17.4x    frame= 5454 fps=423 q=-0.0 size=N/A time=00:03:47.25 bitrate=N/A speed=17.6x    frame= 5699 fps=425 q=-0.0 size=N/A time=00:03:57.45 bitrate=N/A speed=17.7x    frame= 5968 fps=428 q=-0.0 size=N/A time=00:04:08.66 bitrate=N/A speed=17.9x    frame= 6231 fps=432 q=-0.0 size=N/A time=00:04:19.62 bitrate=N/A speed=  18x    frame= 6492 fps=434 q=-0.0 size=N/A time=00:04:30.50 bitrate=N/A speed=18.1x    frame= 6760 fps=437 q=-0.0 size=N/A time=00:04:41.66 bitrate=N/A speed=18.2x    frame= 7011 fps=438 q=-0.0 size=N/A time=00:04:52.12 bitrate=N/A speed=18.3x    frame= 7286 fps=442 q=-0.0 size=N/A time=00:05:03.58 bitrate=N/A speed=18.4x    frame= 7546 fps=443 q=-0.0 size=N/A time=00:05:14.41 bitrate=N/A speed=18.5x    frame= 7822 fps=446 q=-0.0 size=N/A time=00:05:25.91 bitrate=N/A speed=18.6x    frame= 8067 fps=447 q=-0.0 size=N/A time=00:05:36.12 bitrate=N/A speed=18.6x    frame= 8332 fps=449 q=-0.0 size=N/A time=00:05:47.16 bitrate=N/A speed=18.7x    frame= 8580 fps=450 q=-0.0 size=N/A time=00:05:57.50 bitrate=N/A speed=18.7x    frame= 8823 fps=450 q=-0.0 size=N/A time=00:06:07.62 bitrate=N/A speed=18.8x    frame= 9082 fps=452 q=-0.0 size=N/A time=00:06:18.41 bitrate=N/A speed=18.8x    frame= 9332 fps=452 q=-0.0 size=N/A time=00:06:28.83 bitrate=N/A speed=18.8x    frame= 9582 fps=453 q=-0.0 size=N/A time=00:06:39.25 bitrate=N/A speed=18.9x    frame= 9840 fps=454 q=-0.0 size=N/A time=00:06:50.00 bitrate=N/A speed=18.9x    frame=10062 fps=453 q=-0.0 size=N/A time=00:06:59.25 bitrate=N/A speed=18.9x    frame=10291 fps=453 q=-0.0 size=N/A time=00:07:08.79 bitrate=N/A speed=18.9x    frame=10527 fps=453 q=-0.0 size=N/A time=00:07:18.62 bitrate=N/A speed=18.9x    frame=10793 fps=455 q=-0.0 size=N/A time=00:07:29.70 bitrate=N/A speed=18.9x    frame=11047 fps=456 q=-0.0 size=N/A time=00:07:40.29 bitrate=N/A speed=  19x    frame=11315 fps=457 q=-0.0 size=N/A time=00:07:51.45 bitrate=N/A speed=  19x    frame=11568 fps=457 q=-0.0 size=N/A time=00:08:02.00 bitrate=N/A speed=19.1x    frame=11838 fps=459 q=-0.0 size=N/A time=00:08:13.25 bitrate=N/A speed=19.1x    frame=12106 fps=460 q=-0.0 size=N/A time=00:08:24.41 bitrate=N/A speed=19.2x    frame=12384 fps=461 q=-0.0 size=N/A time=00:08:36.00 bitrate=N/A speed=19.2x    frame=12630 fps=462 q=-0.0 size=N/A time=00:08:46.25 bitrate=N/A speed=19.2x    frame=12899 fps=463 q=-0.0 size=N/A time=00:08:57.45 bitrate=N/A speed=19.3x    frame=13164 fps=464 q=-0.0 size=N/A time=00:09:08.50 bitrate=N/A speed=19.3x    frame=13434 fps=465 q=-0.0 size=N/A time=00:09:19.75 bitrate=N/A speed=19.4x    frame=13707 fps=466 q=-0.0 size=N/A time=00:09:31.12 bitrate=N/A speed=19.4x    frame=13961 fps=467 q=-0.0 size=N/A time=00:09:41.70 bitrate=N/A speed=19.4x    frame=14212 fps=467 q=-0.0 size=N/A time=00:09:52.16 bitrate=N/A speed=19.5x    frame=14470 fps=467 q=-0.0 size=N/A time=00:10:02.91 bitrate=N/A speed=19.5x    frame=14734 fps=468 q=-0.0 size=N/A time=00:10:13.91 bitrate=N/A speed=19.5x    frame=15018 fps=469 q=-0.0 size=N/A time=00:10:25.75 bitrate=N/A speed=19.6x    frame=15268 fps=470 q=-0.0 size=N/A time=00:10:36.16 bitrate=N/A speed=19.6x    frame=15540 fps=471 q=-0.0 size=N/A time=00:10:47.50 bitrate=N/A speed=19.6x    frame=15820 fps=472 q=-0.0 size=N/A time=00:10:59.16 bitrate=N/A speed=19.7x    frame=16085 fps=472 q=-0.0 size=N/A time=00:11:10.20 bitrate=N/A speed=19.7x    frame=16350 fps=473 q=-0.0 size=N/A time=00:11:21.25 bitrate=N/A speed=19.7x    frame=16602 fps=473 q=-0.0 size=N/A time=00:11:31.75 bitrate=N/A speed=19.7x    frame=16853 fps=473 q=-0.0 size=N/A time=00:11:42.20 bitrate=N/A speed=19.7x    frame=17112 fps=474 q=-0.0 size=N/A time=00:11:53.00 bitrate=N/A speed=19.7x    frame=17361 fps=474 q=-0.0 size=N/A time=00:12:03.37 bitrate=N/A speed=19.7x    frame=17612 fps=474 q=-0.0 size=N/A time=00:12:13.83 bitrate=N/A speed=19.8x    frame=17868 fps=475 q=-0.0 size=N/A time=00:12:24.50 bitrate=N/A speed=19.8x    frame=18126 fps=475 q=-0.0 size=N/A time=00:12:35.25 bitrate=N/A speed=19.8x    frame=18395 fps=475 q=-0.0 size=N/A time=00:12:46.45 bitrate=N/A speed=19.8x    frame=18661 fps=476 q=-0.0 size=N/A time=00:12:57.54 bitrate=N/A speed=19.8x    frame=18916 fps=476 q=-0.0 size=N/A time=00:13:08.16 bitrate=N/A speed=19.8x    frame=19132 fps=476 q=-0.0 size=N/A time=00:13:17.16 bitrate=N/A speed=19.8x    frame=19370 fps=475 q=-0.0 size=N/A time=00:13:27.08 bitrate=N/A speed=19.8x    frame=19617 fps=475 q=-0.0 size=N/A time=00:13:37.37 bitrate=N/A speed=19.8x    frame=19876 fps=476 q=-0.0 size=N/A time=00:13:48.16 bitrate=N/A speed=19.8x    frame=20136 fps=476 q=-0.0 size=N/A time=00:13:59.00 bitrate=N/A speed=19.8x    frame=20375 fps=476 q=-0.0 size=N/A time=00:14:08.95 bitrate=N/A speed=19.8x    frame=20608 fps=476 q=-0.0 size=N/A time=00:14:18.66 bitrate=N/A speed=19.8x    frame=20889 fps=476 q=-0.0 size=N/A time=00:14:30.37 bitrate=N/A speed=19.8x    frame=21154 fps=477 q=-0.0 size=N/A time=00:14:41.41 bitrate=N/A speed=19.9x    frame=21411 fps=477 q=-0.0 size=N/A time=00:14:52.12 bitrate=N/A speed=19.9x    frame=21671 fps=477 q=-0.0 size=N/A time=00:15:02.95 bitrate=N/A speed=19.9x    frame=21899 fps=477 q=-0.0 size=N/A time=00:15:12.45 bitrate=N/A speed=19.9x    frame=22157 fps=477 q=-0.0 size=N/A time=00:15:23.20 bitrate=N/A speed=19.9x    frame=22379 fps=477 q=-0.0 size=N/A time=00:15:32.45 bitrate=N/A speed=19.9x    frame=22627 fps=477 q=-0.0 size=N/A time=00:15:42.79 bitrate=N/A speed=19.9x    frame=22874 fps=477 q=-0.0 size=N/A time=00:15:53.08 bitrate=N/A speed=19.9x    frame=23071 fps=476 q=-0.0 size=N/A time=00:16:01.29 bitrate=N/A speed=19.8x    frame=23316 fps=476 q=-0.0 size=N/A time=00:16:11.50 bitrate=N/A speed=19.8x    frame=23555 fps=476 q=-0.0 size=N/A time=00:16:21.45 bitrate=N/A speed=19.8x    frame=23777 fps=475 q=-0.0 size=N/A time=00:16:30.70 bitrate=N/A speed=19.8x    frame=23986 fps=474 q=-0.0 size=N/A time=00:16:39.41 bitrate=N/A speed=19.8x    frame=24231 fps=475 q=-0.0 size=N/A time=00:16:49.62 bitrate=N/A speed=19.8x    frame=24471 fps=474 q=-0.0 size=N/A time=00:16:59.62 bitrate=N/A speed=19.8x    frame=24714 fps=474 q=-0.0 size=N/A time=00:17:09.75 bitrate=N/A speed=19.8x    frame=24963 fps=474 q=-0.0 size=N/A time=00:17:20.12 bitrate=N/A speed=19.8x    frame=25150 fps=473 q=-0.0 size=N/A time=00:17:27.91 bitrate=N/A speed=19.7x    frame=25376 fps=473 q=-0.0 size=N/A time=00:17:37.33 bitrate=N/A speed=19.7x    frame=25596 fps=473 q=-0.0 size=N/A time=00:17:46.50 bitrate=N/A speed=19.7x    frame=25831 fps=472 q=-0.0 size=N/A time=00:17:56.29 bitrate=N/A speed=19.7x    frame=26088 fps=473 q=-0.0 size=N/A time=00:18:07.00 bitrate=N/A speed=19.7x    frame=26242 fps=471 q=-0.0 size=N/A time=00:18:13.41 bitrate=N/A speed=19.6x    frame=26370 fps=469 q=-0.0 size=N/A time=00:18:18.75 bitrate=N/A speed=19.5x    frame=26565 fps=468 q=-0.0 size=N/A time=00:18:26.87 bitrate=N/A speed=19.5x    frame=26787 fps=468 q=-0.0 size=N/A time=00:18:36.12 bitrate=N/A speed=19.5x    frame=27008 fps=468 q=-0.0 size=N/A time=00:18:45.33 bitrate=N/A speed=19.5x    frame=27199 fps=467 q=-0.0 size=N/A time=00:18:53.29 bitrate=N/A speed=19.4x    frame=27400 fps=466 q=-0.0 size=N/A time=00:19:01.66 bitrate=N/A speed=19.4x    frame=27588 fps=465 q=-0.0 size=N/A time=00:19:09.50 bitrate=N/A speed=19.4x    frame=27766 fps=464 q=-0.0 size=N/A time=00:19:16.91 bitrate=N/A speed=19.3x    frame=27956 fps=463 q=-0.0 size=N/A time=00:19:24.83 bitrate=N/A speed=19.3x    [Parsed_ssim_10 @ 0000023dfc36cec0] SSIM Y:0.993990 (22.211039) U:0.996542 (24.611643) V:0.996473 (24.526464) All:0.994829 (22.864274)
[out#0/null @ 0000023def6e4a80] video:12090KiB audio:219844KiB subtitle:0KiB other streams:0KiB global headers:0KiB muxing overhead: unknown
frame=28137 fps=463 q=-0.0 Lsize=N/A time=00:19:32.37 bitrate=N/A speed=19.3x    
